<svg width="88" height="72" viewBox="0 0 88 72" fill="none" xmlns="http://www.w3.org/2000/svg">
<path fill-rule="evenodd" clip-rule="evenodd" d="M31.2708 71.5036C34.4013 66.3461 41.3477 55.7774 44.089 54.7628C46.8303 53.7482 49.8847 54.9319 51.0692 55.6506C54.8766 56.7074 63.0243 58.8719 65.1564 59.0748C65.4703 59.1047 65.756 59.1363 66.0201 59.1656C67.9992 59.3847 68.7699 59.47 71.1213 57.6798C73.2534 56.0564 76.1554 53.1986 77.34 51.9727C77.7207 51.254 78.1776 49.1064 76.9592 46.2656C76.7338 45.74 76.4751 45.1673 76.1978 44.5534C74.6014 41.0197 72.3904 36.1252 72.3904 31.0466C72.3904 26.278 71.6289 22.2112 71.2482 20.7738C71.1636 20.5202 71.4258 19.9875 73.1519 19.886C75.3094 19.7592 77.4669 19.3787 80.3859 17.6032C82.721 16.1828 85.6739 13.2912 86.8584 12.0229C87.4506 11.5579 88.1783 10.2474 86.3507 8.72548C84.0663 6.82311 80.132 5.04757 74.1672 6.69629C69.3952 8.01526 67.2716 9.10595 66.8062 9.48643C64.6064 5.93534 58.1509 -0.913186 49.927 0.101411C41.7031 1.11601 36.9396 3.14522 35.5859 4.033C35.0782 4.32892 33.8852 4.64175 33.1745 3.5257C32.4638 2.40964 30.594 1.62333 29.7479 1.36968C28.4787 1.24286 25.6613 1.0653 24.5445 1.36968C23.1484 1.75015 22.6408 3.39887 22.8946 4.28665C23.0977 4.99686 23.4869 7.03451 23.6562 7.96456C23.7408 8.38731 23.2246 9.38499 20.4833 9.99375C17.0567 10.7547 7.41139 12.1498 2.58872 11.6425C-2.23395 11.1352 0.170661 62.2632 27.3366 71.5036C27.9139 71.7 31.0591 72.18 31.2708 71.5036ZM49.256 28.8094C50.6601 30.0922 52.5932 30.262 53.5738 29.1887C54.5544 28.1155 54.2111 26.2055 52.8071 24.9227C51.403 23.6399 49.4699 23.4701 48.4893 24.5434C47.5087 25.6167 47.852 27.5266 49.256 28.8094Z" fill="white"/>
</svg>
