<svg width="78" height="74" viewBox="0 0 78 74" fill="none" xmlns="http://www.w3.org/2000/svg">
<path d="M75.375 10.453H65.675L64.5898 8.29452C64.187 7.4928 63.5679 6.81852 62.8018 6.34725C62.0356 5.87598 61.1528 5.62633 60.2521 5.62627H52.1253L47.9907 1.51153C46.4614 -0.00887871 43.85 1.06807 43.85 3.21746V25.8184L63.25 32.713V27.3463H68.1C73.4577 27.3463 77.8 23.025 77.8 17.693V12.8663C77.8 11.5329 76.7148 10.453 75.375 10.453ZM58.4 17.693C57.0602 17.693 55.975 16.613 55.975 15.2796C55.975 13.9463 57.0602 12.8663 58.4 12.8663C59.7398 12.8663 60.825 13.9463 60.825 15.2796C60.825 16.613 59.7398 17.693 58.4 17.693ZM14.75 29.7597C12.0764 29.7597 9.9 27.5937 9.9 24.933C9.9 22.2678 7.72811 20.1063 5.05 20.1063C2.37189 20.1063 0.199997 22.2678 0.199997 24.933C0.199997 31.2167 4.26642 36.5246 9.9 38.5231V70.7865C9.9 72.1198 10.9852 73.1998 12.325 73.1998H22.025C23.3648 73.1998 24.45 72.1198 24.45 70.7865V53.8931H48.7V70.7865C48.7 72.1198 49.7852 73.1998 51.125 73.1998H60.825C62.1648 73.1998 63.25 72.1198 63.25 70.7865V37.8368L40.5232 29.7597H14.75Z" fill="white"/>
</svg>
