<svg width="73" height="74" viewBox="0 0 73 74" fill="none" xmlns="http://www.w3.org/2000/svg">
<path d="M72.6909 47.8143L62.8064 24.5784C60.6993 18.7517 55.6793 14.5373 49.6552 13.3776C52.2006 11.8785 56.2025 8.30048 54.4914 1.73842C54.3076 1.0313 53.4874 0.621173 52.7945 0.875736L24.2014 11.5815C5.6766 18.2426 0.599976 34.577 0.599976 57.1907V68.6743C0.599976 71.1775 2.62214 73.1998 5.1251 73.1998H38.5262C41.8918 73.1998 44.0836 69.6642 42.5705 66.6519L36.801 55.0976V54.9986C30.3527 54.5036 24.8377 50.6569 22.0519 45.1555C21.8257 44.7171 21.9246 44.1797 22.2782 43.8403L23.9892 42.129C24.5407 41.5775 25.4882 41.7472 25.8134 42.4685C27.9063 47.2344 32.6294 50.5862 38.1727 50.5862C40.6049 50.5862 42.8392 49.8649 44.7907 48.7194L51.2956 57.7564C52.144 58.9443 53.5157 59.6373 54.9722 59.6373H62.0852C63.2872 59.6373 64.4326 59.1564 65.281 58.3079L71.6869 52.6792C72.9455 51.3923 73.3414 49.4831 72.6909 47.8143ZM46.9826 32.4698C45.1018 32.4698 43.5887 30.9566 43.5887 29.0756C43.5887 27.1947 45.1018 25.6815 46.9826 25.6815C48.8633 25.6815 50.3764 27.1947 50.3764 29.0756C50.3764 30.9566 48.8633 32.4698 46.9826 32.4698Z" fill="white"/>
</svg>
