<svg width="68" height="83" viewBox="0 0 68 83" fill="none" xmlns="http://www.w3.org/2000/svg">
<path fill-rule="evenodd" clip-rule="evenodd" d="M31.4074 9.39123C33.8903 9.39123 35.9031 7.37845 35.9031 4.89557C35.9031 2.41268 33.8903 0.399902 31.4074 0.399902C29.98 0.399902 28.708 1.06514 27.8845 2.1025C25.623 2.50244 23.0915 3.39942 20.9847 5.12038C19.3644 6.44395 18.0094 8.25025 17.2931 10.6114C16.582 12.955 16.5567 15.6563 17.2801 18.7056C17.3509 19.0042 17.4672 19.2903 17.6248 19.5536L31.4814 42.7094C31.5159 42.7671 31.5523 42.8235 31.5906 42.8788C32.9243 44.8015 35.5248 47.463 39.0001 48.4686V63.2269C38.7371 65.3802 37.8662 68.6367 36.1463 71.4048C34.4103 74.1988 32.0144 76.2094 28.6976 76.5519C24.1542 77.021 20.6988 75.1669 18.2348 72.4045C15.6891 69.5503 14.3494 65.8654 14.2032 63.2345C13.9732 59.0935 14.0342 51.1667 14.1312 45.6145C18.2574 44.2991 21.246 40.4348 21.246 35.8725C21.246 30.2265 16.669 25.6495 11.023 25.6495C5.37699 25.6495 0.799988 30.2265 0.799988 35.8725C0.799988 40.5134 3.89244 44.4321 8.12911 45.6802C8.03289 51.2723 7.97284 59.2543 8.21245 63.5673C8.4358 67.5875 10.3293 72.5552 13.7572 76.3983C17.2669 80.3332 22.5257 83.2211 29.3139 82.5201C35.0623 81.9265 38.8864 78.3637 41.2427 74.5713C43.5727 70.8212 44.6663 66.5708 44.9817 63.7322C44.9939 63.6222 45.0001 63.5116 45.0001 63.4009V48.3582C47.4331 47.5454 49.7493 45.7668 51.8501 42.9711C58.3959 34.2602 64.3153 23.6296 66.4763 19.3706C66.5485 19.2283 66.6092 19.0805 66.6579 18.9285C67.4821 16.3561 67.904 12.2831 66.0479 8.62745C64.3337 5.25134 61.0009 2.83592 55.847 2.07496C55.0229 1.05338 53.7608 0.399902 52.3461 0.399902C49.8632 0.399902 47.8505 2.41268 47.8505 4.89557C47.8505 7.37845 49.8632 9.39123 52.3461 9.39123C53.5772 9.39123 54.6928 8.89637 55.5047 8.09471C58.7383 8.68754 60.0818 10.1302 60.698 11.3438C61.5627 13.0469 61.4835 15.2465 61.009 16.8845C58.8485 21.1057 53.2031 31.1829 47.0534 39.3667C44.8782 42.2614 43.0829 42.8473 41.9305 42.874C39.9494 42.9199 37.8422 41.3234 36.5744 39.5357L23.0214 16.8872C22.6003 14.8665 22.7161 13.4033 23.0346 12.3533C23.3703 11.2471 23.9852 10.4168 24.7805 9.76711C25.7652 8.96274 27.0341 8.43748 28.2957 8.1403C29.1034 8.91509 30.1998 9.39123 31.4074 9.39123ZM43.8629 18.2095C45.136 18.3137 46.2732 16.7396 46.4115 15.0513C46.5498 13.3629 45.6299 11.9098 44.3569 11.8055C43.0838 11.7012 41.9397 12.9853 41.8014 14.6737C41.6631 16.362 42.5899 18.1052 43.8629 18.2095ZM40.3353 14.7464C40.909 16.3402 40.5264 18.2442 39.3246 18.6768C38.1228 19.1094 36.5569 17.907 35.9832 16.3131C35.4094 14.7193 35.9185 13.0765 37.1203 12.6439C38.3221 12.2112 39.7615 13.1526 40.3353 14.7464ZM35.9804 23.1376C37.058 22.4519 37.0138 20.5103 36.1044 19.0812C35.195 17.652 33.5842 17.0493 32.5066 17.735C31.429 18.4207 31.2926 20.1351 32.2019 21.5643C33.1113 22.9935 34.9028 23.8233 35.9804 23.1376ZM42.1371 19.541C43.8516 19.541 45.3229 20.5513 45.9537 21.992C46.0621 21.9837 46.1717 21.9795 46.2824 21.9795C48.5716 21.9795 50.4273 23.7807 50.4273 26.0026C50.4273 28.2244 48.5716 30.0256 46.2824 30.0256C45.4569 30.0256 44.6878 29.7914 44.0418 29.3878C43.5264 29.2728 42.7763 29.3083 41.9711 29.8639C41.2112 30.7098 40.0928 31.2444 38.8457 31.2444C36.5565 31.2444 34.7007 29.4432 34.7007 27.2213C34.7007 25.28 36.1175 23.6598 38.0022 23.2816C38.1516 21.1915 39.9458 19.541 42.1371 19.541ZM51.0553 18.8343C50.3156 20.3583 48.6859 21.4144 47.5368 20.8566C46.3877 20.2988 46.1544 18.3384 46.8941 16.8145C47.6339 15.2906 49.165 14.5073 50.3141 15.0651C51.4632 15.6229 51.795 17.3104 51.0553 18.8343Z" fill="white"/>
</svg>
