<svg width="84" height="48" viewBox="0 0 84 48" fill="none" xmlns="http://www.w3.org/2000/svg">
<path d="M47.7022 0.799805C34.5816 0.799805 23.1235 8.74146 16.7462 15.5362L4.01059 5.95891C2.24164 4.62781 -0.3994 6.04591 0.0526825 8.08461L3.57892 23.9998L0.0512241 39.9165C-0.400858 41.9552 2.24018 43.3718 4.00913 42.0422L16.7447 32.4649C23.122 39.2582 34.5816 47.1998 47.7022 47.1998C67.7484 47.1998 84 28.6398 84 23.9998C84 19.3598 67.7484 0.799805 47.7022 0.799805ZM60.4523 27.4798C58.5201 27.4798 56.9524 25.9211 56.9524 23.9998C56.9524 22.0771 58.5201 20.5198 60.4523 20.5198C62.3861 20.5198 63.9523 22.0771 63.9523 23.9998C63.9523 25.9211 62.3846 27.4798 60.4523 27.4798Z" fill="white"/>
</svg>
