<svg width="75" height="71" viewBox="0 0 75 71" fill="none" xmlns="http://www.w3.org/2000/svg">
<path d="M42.3399 24.0665C39.3996 24.0665 26.7759 24.3544 18.65 36.565V24.0665C18.65 16.3681 12.376 10.1065 4.6625 10.1065C2.08793 10.1065 0 12.1903 0 14.7598C0 17.3293 2.08793 19.4131 4.6625 19.4131C7.2327 19.4131 9.325 21.5013 9.325 24.0665V61.2931C9.325 66.4264 13.5067 70.5998 18.65 70.5998H44.2938C45.5818 70.5998 46.625 69.5586 46.625 68.2731V65.9465C46.625 63.377 44.5371 61.2931 41.9625 61.2931H37.3L55.95 47.3331V68.2731C55.95 69.5586 56.9932 70.5998 58.2813 70.5998H62.9438C64.2318 70.5998 65.275 69.5586 65.275 68.2731V38.297C63.7757 38.6852 62.2313 38.9571 60.6125 38.9571C51.6066 38.9571 44.0723 32.5515 42.3399 24.0665ZM65.275 10.1065H55.95L46.625 0.799805V20.3438C46.625 28.0538 52.8873 34.3038 60.6125 34.3038C68.3377 34.3038 74.6 28.0538 74.6 20.3438V0.799805L65.275 10.1065ZM54.7844 21.7398C53.4964 21.7398 52.4531 20.6986 52.4531 19.4131C52.4531 18.1277 53.4964 17.0865 54.7844 17.0865C56.0724 17.0865 57.1156 18.1277 57.1156 19.4131C57.1156 20.6986 56.0724 21.7398 54.7844 21.7398ZM66.4406 21.7398C65.1526 21.7398 64.1094 20.6986 64.1094 19.4131C64.1094 18.1277 65.1526 17.0865 66.4406 17.0865C67.7286 17.0865 68.7719 18.1277 68.7719 19.4131C68.7719 20.6986 67.7286 21.7398 66.4406 21.7398Z" fill="white"/>
</svg>
