<svg width="71" height="70" viewBox="0 0 71 70" fill="none" xmlns="http://www.w3.org/2000/svg">
<path d="M39.4885 22.9889V19.1579C35.6221 14.2089 33.0308 8.34653 32.0711 2.08874C31.7832 0.248216 29.4661 -0.47436 28.2596 0.957159C25.3667 4.35191 23.0907 8.33289 21.5552 12.7502C26.2441 17.9718 32.5236 21.5574 39.4885 22.9889ZM54.8442 8.91914C48.7842 8.91914 43.8758 13.8136 43.8758 19.8396V27.9379C29.5621 27.0926 17.4146 18.3263 11.9304 5.89249C11.1763 4.1883 8.74955 4.09287 7.95434 5.76979C5.6784 10.5552 4.38961 15.8995 4.38961 21.5438C4.38961 31.1963 9.06489 40.2081 16.0572 46.8885C17.867 48.6199 19.6357 50.0515 21.3906 51.3603L1.66122 56.2684C0.194199 56.6365 -0.463905 58.327 0.358725 59.5949C2.74435 63.2624 8.63986 69.4792 21.3632 69.9973C22.46 70.0382 23.5569 69.6428 24.3932 68.9203L33.3325 61.2719H43.8758C55.9959 61.2719 65.8126 51.5239 65.8126 39.4719V17.6446L70.2 8.91914H54.8442ZM54.8442 22.021C53.6377 22.021 52.6506 21.0393 52.6506 19.8396C52.6506 18.6398 53.6377 17.6582 54.8442 17.6582C56.0508 17.6582 57.0379 18.6398 57.0379 19.8396C57.0379 21.0393 56.0508 22.021 54.8442 22.021Z" fill="white"/>
</svg>
