<svg width="80" height="80" viewBox="0 0 80 80" fill="none" xmlns="http://www.w3.org/2000/svg">
<path fill-rule="evenodd" clip-rule="evenodd" d="M32.6066 79.4001C33.646 71.6654 35.725 56.0675 35.725 55.5539C35.725 55.3558 35.8654 55.4367 36.2805 55.6758C37.2104 56.2115 39.5185 57.5412 44.7131 58.3054C49.0905 58.9494 52.4627 58.5848 54.2238 58.3944C54.6246 58.3511 54.942 58.3168 55.1688 58.3054C56.2388 58.2137 57.4617 57.535 53.793 55.5539C49.6443 53.3136 47.9431 49.0768 47.4796 47.9225C47.4308 47.801 47.3957 47.7136 47.3729 47.6663C47.1 47.1001 46.8 45.3001 48 46.9001C48.1953 47.1308 48.3747 47.3647 48.5608 47.6071C49.423 48.7307 50.4264 50.0382 53.793 52.0687C57.9161 54.5554 64.8907 54.4533 65.8996 54.0864C66.9084 53.7196 68.3759 52.5273 66.9085 52.0687C66.7532 52.0202 66.5004 51.9521 66.176 51.8648C63.4337 51.1269 55.571 49.0111 58.1954 45.6485C60.5434 42.6403 62.9035 42.3773 63.7901 42.6219C67.9173 42.9276 76.5203 43.1905 77.9144 41.7965C79.3085 40.4024 79.3513 37.9138 79.1984 36.8438C79.7181 36.2629 80.2807 34.4958 78.373 32.0745C78.0061 31.1207 78.0367 28.4976 78.0978 27.3053C78.159 26.4187 77.0156 23.4899 71.9528 18.8674C66.8901 14.2449 58.0426 7.46403 54.2516 4.6514C49.9104 1.59419 39.1185 -2.6859 30.6806 4.6514C29.8735 5.45848 29.4882 5.78254 29.3965 5.84368C24.8413 5.47682 13.5296 6.50404 4.72488 13.5478C5.24283 13.4886 5.78406 13.4247 6.34044 13.3589C12.6805 12.6096 20.9867 11.6278 19.216 14.8319C17.29 18.3171 3.80772 44.2728 0.781082 52.0687C-2.24555 59.8645 13.1628 77.199 32.6066 79.4001ZM43.8122 21.3945C46.007 21.5162 47.8345 20.7459 47.8939 19.674C47.9534 18.6021 46.2223 17.6345 44.0274 17.5128C41.8326 17.3911 40.0051 18.1614 39.9457 19.2333C39.8862 20.3052 41.6173 21.2728 43.8122 21.3945Z" fill="white"/>
</svg>
